:version 1.10
:name ASF
:units
  mass 1
  length 1
  angle deg
:documentation
  ASF file generated by Kaydara
:root
  axis xyz
  order  tx ty tz rx ry rz
  position 0 0 0
  orientation 0 0 0
:bonedata
  begin
    id 1
    name RightUpLegDummy
    direction -0.718183 -0.695806 0.00816078
    length 4.904
    axis 0 0 0 xyz
  end
  begin
    id 2
    name RightUpLeg
    direction 3.53989e-006 -0.995788 0.0916897
    length 17.4976
    axis -3.49089 -0.000906621 0.000287158 xyz
    dof rx ry rz
  end
  begin
    id 3
    name RightLeg
    direction 0.00371093 -0.995096 -0.0988418
    length 16.5821
    axis 3.68512 0.0193738 -0.131023 xyz
    dof rx ry rz
  end
  begin
    id 4
    name RightFoot
    direction 0.000791514 -0.46099 0.887405
    length 3.77069
    axis 4.84075e-005 -0.120479 -0.188788 xyz
    dof rx ry rz
  end
  begin
    id 5
    name RightToes
    direction 0.00124746 -0.014064 0.9999
    length 3.85082
    axis 0.00048216 0.542163 -0.142577 xyz
    dof rx ry rz
  end
  begin
    id 6
    name SpineDummy
    direction 8.3039e-015 1 4.57515e-016
    length 4.6813
    axis 0 0 0 xyz
  end
  begin
    id 7
    name Spine
    direction -4.63632e-008 0.999988 0.00495137
    length 10.1015
    axis -0.00138897 0.000121419 3.25764e-006 xyz
    dof rx ry rz
  end
  begin
    id 8
    name Spine1
    direction 0 0 0
    length 0
    axis -0.00138896 0.000121452 2.39764e-006 xyz
    dof rx ry rz
  end
  begin
    id 9
    name HEadDummy
    direction -3.91456e-008 0.999999 0.00127422
    length 3.43865
    axis -0.00138896 0.000121452 2.39764e-006 xyz
  end
  begin
    id 10
    name HEad
    direction -0.0222688 0.980941 0.193023
    length 5.12695
    axis -0.00138895 0.000121452 2.39764e-006 xyz
    dof rx ry rz
  end
  begin
    id 11
    name LeftShoulder1Dummy
    direction 0.998891 -0.0402508 -0.0244456
    length 3.5433
    axis -0.00138896 0.000121452 2.39764e-006 xyz
  end
  begin
    id 12
    name LeftShoulder1
    direction 0.99951 -0.000327743 0.0313091
    length 4.05031
    axis -0.00138896 0.000121452 2.39764e-006 xyz
    dof rx ry rz
  end
  begin
    id 13
    name LeftArm
    direction 0.998561 -0.00100054 -0.0536182
    length 10.3537
    axis -23.1894 0.134784 0.96751 xyz
    dof rx ry rz
  end
  begin
    id 14
    name LeftForeArm
    direction 0.998903 0.00866434 0.046012
    length 8.70632
    axis -9.91835 -0.06569 -0.177792 xyz
    dof rx ry rz
  end
  begin
    id 15
    name LeftHand
    direction 0.992938 -0.0411636 0.11126
    length 5.32135
    axis -0.00960227 -0.00340091 0.185174 xyz
    dof rx ry rz
  end
  begin
    id 16
    name RightShoulderDummy
    direction -0.998891 -0.0402509 -0.0244414
    length 3.5433
    axis -0.00138896 0.000121452 2.39764e-006 xyz
  end
  begin
    id 17
    name RightShoulder
    direction -0.99951 -0.000327827 0.0313133
    length 4.05031
    axis 0.215806 0.000203644 -0.00680151 xyz
    dof rx ry rz
  end
  begin
    id 18
    name RightArm
    direction -0.998573 -0.000999583 -0.053403
    length 10.3947
    axis -23.2009 -0.134239 -0.9641 xyz
    dof rx ry rz
  end
  begin
    id 19
    name RightForeArm
    direction -0.998898 0.00868026 0.0461306
    length 8.68355
    axis -9.92322 0.0658061 0.178869 xyz
    dof rx ry rz
  end
  begin
    id 20
    name RightHand
    direction -0.992843 -0.0414603 0.112003
    length 5.28593
    axis -0.00960634 0.00330671 -0.185226 xyz
    dof rx ry rz
  end
  begin
    id 21
    name LeftUpLegDummy
    direction 0.718183 -0.695806 0.00816078
    length 4.904
    axis 0 0 0 xyz
  end
  begin
    id 22
    name LeftUpLeg
    direction -6.8115e-006 -0.995793 0.0916336
    length 17.4976
    axis -3.48766 0.00143441 -0.000523914 xyz
    dof rx ry rz
  end
  begin
    id 23
    name LeftLeg
    direction -0.00601357 -0.995091 -0.0987824
    length 16.5821
    axis 3.68177 -0.00654038 -0.00028478 xyz
    dof rx ry rz
  end
  begin
    id 24
    name LeftFoot
    direction -0.00417578 -0.460984 0.887399
    length 3.77069
    axis 1.87232e-006 4.66002e-005 -8.1837e-006 xyz
    dof rx ry rz
  end
  begin
    id 25
    name LeftToes
    direction 0.00818058 -0.00485161 0.999955
    length 3.85048
    axis 1.06246e-005 4.65855e-005 -8.18502e-006 xyz
    dof rx ry rz
  end
:hierarchy
  begin
    root RightUpLegDummy SpineDummy LeftUpLegDummy
    RightUpLegDummy RightUpLeg
    RightUpLeg RightLeg
    RightLeg RightFoot
    RightFoot RightToes
    SpineDummy Spine
    Spine Spine1
    Spine1 HEadDummy LeftShoulder1Dummy RightShoulderDummy
    HEadDummy HEad
    LeftShoulder1Dummy LeftShoulder1
    LeftShoulder1 LeftArm
    LeftArm LeftForeArm
    LeftForeArm LeftHand
    RightShoulderDummy RightShoulder
    RightShoulder RightArm
    RightArm RightForeArm
    RightForeArm RightHand
    LeftUpLegDummy LeftUpLeg
    LeftUpLeg LeftLeg
    LeftLeg LeftFoot
    LeftFoot LeftToes
  end

:SAMPLES-PER-SECOND 30
:FRAME-RANGE 1-668
:FULLY-SPECIFIED
:DEGREES
21
root  11.8226 40.2348 24.5525 -173.253 12.4103 179.715
RightUpLeg  -3.99709 -4.09007 -1.95473
RightLeg  6.93168 -13.7888 -0.45066
RightFoot  -7.51814 -0.220499 5.09427
RightToes  5.38607e-012 1.2921e-014 -6.02303e-014
Spine  -13.8706 -0.252542 3.11673
Spine1  14.0546 1.02511 -5.63616
HEad  12.0738 -4.23797 -7.68931
LeftShoulder1  0.356988 2.08392 -23.2005
LeftArm  -5.93198 9.27904 -33.7267
LeftForeArm  24.6186 3.11402 -10.4805
LeftHand  0.00377826 3.4238 -1.38885
RightShoulder  1.93543 2.9449 24.9044
RightArm  -26.8863 21.0641 47.6573
RightForeArm  100.624 -3.30128 -0.358421
RightHand  0.415186 -11.0335 -9.36928
LeftUpLeg  -6.93328 0.100263 -2.28392
LeftLeg  6.06324 5.53457 2.56184
LeftFoot  -5.32221 0.0037077 0.507845
LeftToes  -6.11857e-011 5.00151e-011 -2.22593e-011
22
root  11.78 40.2351 24.4937 -173.06 12.284 179.68
RightUpLeg  -4.05443 -3.95866 -2.00742
RightLeg  6.79273 -14.0341 -0.553992
RightFoot  -7.48344 -0.227117 5.22785
RightToes  5.38607e-012 1.2921e-014 -6.02303e-014
Spine  -13.965 -0.604576 2.83197
Spine1  14.2096 0.616461 -5.36547
HEad  11.7283 -3.80371 -7.46255
LeftShoulder1  0.341517 2.1557 -23.7077
LeftArm  -5.12355 9.66086 -37.2176
LeftForeArm  23.1601 6.80076 -11.0303
LeftHand  0.00144629 4.13191 -2.40725
RightShoulder  1.82211 2.28671 26.5812
RightArm  -28.7417 17.2056 47.8219
RightForeArm  102.811 -3.01233 -1.43986
RightHand  0.414082 -11.7726 -8.35125
LeftUpLeg  -6.98979 0.00251237 -2.40512
LeftLeg  5.87151 5.4846 2.53971
LeftFoot  -5.26201 0.00678424 0.482456
LeftToes  -6.11857e-011 5.00151e-011 -2.22593e-011
23
root  11.7425 40.2315 24.4322 -172.898 12.3123 179.682
RightUpLeg  -4.11539 -3.93227 -2.0655
RightLeg  6.73011 -14.0225 -0.567137
RightFoot  -7.49719 -0.232429 5.40159
RightToes  5.38607e-012 1.2921e-014 -6.02303e-014
Spine  -14.0214 -1.06282 2.30318
Spine1  14.2963 0.0532299 -4.88854
HEad  11.6205 -3.16557 -7.27527
LeftShoulder1  0.296356 2.32779 -24.3545
LeftArm  -5.35014 10.8539 -40.3047
LeftForeArm  22.4766 7.7311 -11.3278
LeftHand  -5.89605e-005 4.47148 -2.90666
RightShoulder  1.68551 1.68329 27.8116
RightArm  -28.9403 12.72 48.0295
RightForeArm  101.374 -3.14502 -1.06335
RightHand  0.423576 -11.3614 -9.05203
LeftUpLeg  -7.09624 -0.0495582 -2.49253
LeftLeg  5.91073 5.5906 2.56349
LeftFoot  -5.33856 -0.00476353 0.684341
LeftToes  -6.11857e-011 5.00151e-011 -2.22593e-011
24
root  11.7119 40.2255 24.3699 -172.838 12.6978 179.687
RightUpLeg  -4.18975 -3.90886 -2.13668
RightLeg  6.80675 -13.591 -0.637248
RightFoot  -7.55114 -0.228197 5.40257
RightToes  5.38607e-012 1.2921e-014 -6.02303e-014
Spine  -13.9353 -1.41006 1.86581
Spine1  14.2929 -0.35343 -4.58292
HEad  11.5745 -2.65436 -7.12351
LeftShoulder1  0.240029 2.53608 -25.295
LeftArm  -5.39933 12.3471 -42.4075
LeftForeArm  20.6506 7.7849 -11.5971
LeftHand  0.00165549 4.46842 -3.20596
RightShoulder  1.47984 0.968129 28.6516
RightArm  -27.9475 7.63258 48.2467
RightForeArm  95.2951 -3.68807 0.443054
RightHand  0.347548 -9.80507 -10.0595
LeftUpLeg  -7.07892 -0.00427898 -2.56296
LeftLeg  5.9828 5.93264 2.56543
LeftFoot  -5.45266 -0.0124215 0.82339
LeftToes  -6.11857e-011 5.00151e-011 -2.22593e-011
25
root  11.6873 40.2154 24.3173 -172.849 13.3376 179.718
RightUpLeg  -4.255 -4.03582 -2.22264
RightLeg  6.95072 -12.9002 -0.585692
RightFoot  -7.61909 -0.229693 5.46894
RightToes  5.38607e-012 1.2921e-014 -6.02303e-014
Spine  -13.8375 -1.61376 1.61398
Spine1  14.2973 -0.564238 -4.49517
HEad  11.6018 -2.29505 -6.91847
LeftShoulder1  0.127528 2.90545 -26.0746
LeftArm  -5.8963 13.6561 -44.1023
LeftForeArm  18.4935 7.78927 -11.5599
LeftHand  0.00367404 4.31269 -3.28763
RightShoulder  1.29346 0.382185 29.0822
RightArm  -27.0877 2.23218 48.7714
RightForeArm  87.8664 -4.26939 1.85804
RightHand  0.286796 -8.59859 -11.4199
LeftUpLeg  -6.99179 0.0455612 -2.6102
LeftLeg  6.10417 6.47256 2.62318
LeftFoot  -5.60492 0.00633805 0.547091
LeftToes  -6.11857e-011 5.00151e-011 -2.22593e-011
26
root  11.6632 40.2086 24.2664 -172.908 14.0174 179.759
RightUpLeg  -4.26332 -4.09768 -2.29191
RightLeg  7.06842 -12.1562 -0.567556
RightFoot  -7.67312 -0.2294 5.48336
RightToes  5.38607e-012 1.2921e-014 -6.02303e-014
Spine  -13.8353 -1.7579 1.42402
Spine1  14.4388 -0.703132 -4.4499
HEad  11.7886 -2.13531 -6.77251
LeftShoulder1  0.0442618 3.16724 -26.5056
LeftArm  -7.34521 14.9216 -45.7029
LeftForeArm  17.5455 7.70511 -11.0043
LeftHand  0.00346998 4.18554 -3.16095
RightShoulder  1.18325 0.0660736 29.0818
RightArm  -27.0498 -2.50731 49.5298
RightForeArm  81.1609 -4.68775 2.57764
RightHand  0.154574 -7.13748 -11.8492
LeftUpLeg  -6.89525 0.148124 -2.63886
LeftLeg  6.31118 7.09806 2.65975
LeftFoot  -5.82539 -0.00669713 0.762926
LeftToes  -6.11857e-011 5.00151e-011 -2.22593e-011
